<svg width="485" height="326" viewBox="0 0 485 326" fill="none" xmlns="http://www.w3.org/2000/svg">
<path fill-rule="evenodd" clip-rule="evenodd" d="M302.214 202H169V68.7856H302.214V202Z" fill="#FF2620"/>
<path fill-rule="evenodd" clip-rule="evenodd" d="M210.159 96.0608L214.563 106.082L225.571 107.259L217.283 114.457L219.685 125.377L210.159 119.633L200.634 125.377L203.036 114.457L194.747 107.259L205.756 106.082L210.159 96.0608Z" fill="white"/>
<path fill-rule="evenodd" clip-rule="evenodd" d="M273.874 122.911H249.491V98.5281H273.874V122.911Z" fill="white"/>
<path fill-rule="evenodd" clip-rule="evenodd" d="M274.239 175.599H249.123L261.682 152.011L274.239 175.599Z" fill="white"/>
<path fill-rule="evenodd" clip-rule="evenodd" d="M222.384 163.805C222.384 170.556 216.91 176.03 210.158 176.03C203.406 176.03 197.933 170.556 197.933 163.805C197.933 157.053 203.406 151.582 210.158 151.582C216.91 151.582 222.384 157.053 222.384 163.805Z" fill="white"/>
<g clip-path="url(#clip0_317_13239)">
<path d="M73.1329 120.365L64.6447 120.711L59.1423 120.365L68.2435 119.505L73.1329 120.365Z" fill="#634B1E"/>
<path d="M68.2244 119.881L73.1334 120.365V110.616L68.2244 108.196L67.8474 108.597V119.466L68.2244 119.881Z" fill="#D9A740"/>
<path d="M59.1423 110.61L68.2238 108.187V119.881L59.1423 120.366V110.61Z" fill="#886A2A"/>
<path d="M38.1709 120.365L46.6591 120.712L52.1615 120.365L43.0863 119.407L38.1709 120.365Z" fill="#634B1E"/>
<path d="M43.08 119.881L38.1709 120.35V110.572L43.08 108.156L43.306 108.572V119.516L43.08 119.881Z" fill="#886A2A"/>
<path d="M52.1613 110.61L43.0798 108.187V119.881L52.1613 120.366V110.61Z" fill="#D9A740"/>
<path d="M73.1329 125.406L64.6447 125.06L59.1423 125.406L68.2039 126.309L73.1329 125.406Z" fill="#FAD791"/>
<path d="M68.2244 125.89L73.1335 125.406V135.155L68.2244 137.575L67.9666 137.022V126.387L68.2244 125.89Z" fill="#D9A740"/>
<path d="M59.1423 135.161L68.2238 137.584V125.89L59.1423 125.406V135.161Z" fill="#886A2A"/>
<path d="M38.1709 125.406L46.6591 125.06L52.1615 125.406L43.0206 126.387L38.1709 125.406Z" fill="#FAD791"/>
<path d="M43.08 125.89L38.1709 125.406V135.155L43.08 137.575L43.3776 137.139V126.387L43.08 125.89Z" fill="#886A2A"/>
<path d="M52.1616 135.161L43.0801 137.584V125.89L52.1616 125.406V135.161Z" fill="#D9A740"/>
<path d="M51.2212 116.27L55.7234 115.491L64.7118 116.746L65.486 117.185L61.1203 117.656L51.2212 116.27Z" fill="#634B1E"/>
<path d="M60.0839 116.27L55.5817 115.491L46.2063 116.926L45.8191 117.185L50.1848 117.656L60.0839 116.27Z" fill="#634B1E"/>
<path d="M51.2212 129.501L55.7234 130.279L64.6891 129.043L65.486 128.585L61.1203 128.115L51.2212 129.501Z" fill="#FAD791"/>
<path d="M60.0839 129.501L55.5817 130.279L46.138 128.953L45.8191 128.585L50.1848 128.115L60.0839 129.501Z" fill="#FAD791"/>
<path d="M65.4858 117.185V112.367L60.8816 110.882V104.576L55.6524 101.998V101.998L55.4343 102.341L55.3945 143.082L55.6524 143.606L60.8816 141.029V134.888L65.4858 133.404V128.586L60.8816 129.385V116.386L65.4858 117.185Z" fill="#D9A740"/>
<path d="M50.4233 104.576V110.882L45.8191 112.367V117.185L50.4233 116.386V129.385L45.8191 128.586V133.404L50.4233 134.888V141.029L55.6525 143.606V101.998L50.4233 104.576Z" fill="#886A2A"/>
</g>
<path d="M15.1268 166.783H16.2748L17.2408 163.899H21.3708L22.3508 166.783H23.5548L20.1668 156.773H18.5708L15.1268 166.783ZM19.3128 157.781L21.0488 162.933H17.5768L19.3128 157.781ZM25.3164 166.783H26.5344V162.709H28.1584C30.0624 162.709 31.6584 161.883 31.6584 159.755V159.699C31.6584 157.613 30.0764 156.773 28.1584 156.773H25.3164V166.783ZM26.5344 161.743V157.753H28.2424C29.6004 157.753 30.4404 158.285 30.4404 159.699V159.755C30.4404 161.043 29.6704 161.743 28.2424 161.743H26.5344ZM33.5212 166.783H34.7392V156.773H33.5212V166.783ZM45.3931 166.909C47.9551 166.909 49.7331 165.369 49.7331 162.471V161.729H45.6171V162.737H48.5431C48.5011 164.515 47.5631 165.929 45.3931 165.929C43.0411 165.929 41.8091 164.305 41.8091 161.827V161.715C41.8091 159.265 43.1251 157.585 45.4211 157.585C46.8771 157.585 47.9691 158.201 48.2491 159.797H49.4671C49.1591 157.543 47.3811 156.619 45.3931 156.619C42.5231 156.619 40.5491 158.803 40.5491 161.729V161.841C40.5491 164.767 42.3131 166.909 45.3931 166.909ZM53.5215 166.909C54.5995 166.909 55.2575 166.545 55.8035 165.859V166.783H56.9655V161.953C56.9655 159.909 55.6915 159.335 54.2915 159.335C52.8775 159.335 51.5475 159.951 51.3935 161.617H52.5555C52.6675 160.721 53.2275 160.301 54.2355 160.301C55.3555 160.301 55.8035 160.791 55.8035 161.953V162.485H54.7535C52.8775 162.485 51.0855 163.059 51.0855 164.753C51.0855 166.251 52.1635 166.909 53.5215 166.909ZM53.6335 165.985C52.6115 165.985 52.2475 165.509 52.2475 164.753C52.2475 163.675 53.3255 163.311 54.7955 163.311H55.8035V164.221C55.8035 165.355 54.8655 165.985 53.6335 165.985ZM61.474 166.881C61.95 166.881 62.23 166.811 62.468 166.727V165.747C62.216 165.845 61.936 165.901 61.572 165.901C60.984 165.901 60.662 165.551 60.662 164.837V160.441H62.37V159.461H60.662V157.795H59.5V159.461H58.45V160.441H59.5V164.949C59.5 166.097 60.144 166.881 61.474 166.881ZM67.2206 166.909C68.8726 166.909 70.0906 166.139 70.3426 164.669H69.1806C69.0266 165.523 68.3686 165.943 67.2346 165.943C65.7366 165.943 64.9386 165.019 64.8826 163.353H70.3986V162.975C70.3986 160.357 68.8026 159.335 67.1086 159.335C65.0926 159.335 63.6786 160.875 63.6786 163.087V163.199C63.6786 165.453 65.1486 166.909 67.2206 166.909ZM64.9246 162.415C65.1206 161.113 65.9186 160.301 67.1086 160.301C68.3126 160.301 69.0966 160.903 69.2086 162.415H64.9246ZM73.5833 166.783H74.8573L76.5653 161.295L78.0913 166.783H79.3793L81.6613 159.461H80.4713L78.7493 165.355L77.0833 159.461H76.0753L74.2973 165.355L72.5893 159.461H71.3293L73.5833 166.783ZM84.9258 166.909C86.0038 166.909 86.6618 166.545 87.2078 165.859V166.783H88.3698V161.953C88.3698 159.909 87.0958 159.335 85.6958 159.335C84.2818 159.335 82.9518 159.951 82.7978 161.617H83.9598C84.0718 160.721 84.6318 160.301 85.6398 160.301C86.7598 160.301 87.2078 160.791 87.2078 161.953V162.485H86.1578C84.2818 162.485 82.4898 163.059 82.4898 164.753C82.4898 166.251 83.5678 166.909 84.9258 166.909ZM85.0378 165.985C84.0158 165.985 83.6518 165.509 83.6518 164.753C83.6518 163.675 84.7298 163.311 86.1998 163.311H87.2078V164.221C87.2078 165.355 86.2698 165.985 85.0378 165.985ZM91.1052 169.331H92.2812L96.3272 159.461H95.1372L93.1072 164.711L90.8672 159.461H89.6212L92.4912 166.027L91.1052 169.331Z" fill="#161F31"/>
<rect x="0.5" y="88.5" width="110.304" height="94.6957" stroke="#51CCCA"/>
<path d="M169 136L164 133.113L164 138.887L169 136ZM111 136.5L164.5 136.5L164.5 135.5L111 135.5L111 136.5Z" fill="#161F31"/>
<g clip-path="url(#clip1_317_13239)">
<path d="M449.522 183.913H407.783V225.652H449.522V183.913Z" fill="#CC2264"/>
<path d="M438.158 212.251V212.713C438.158 212.657 438.158 212.602 438.158 212.546C438.147 212.448 438.147 212.349 438.158 212.251Z" fill="white"/>
<path d="M430.851 201.165L430.795 201.271C430.817 201.237 430.834 201.199 430.845 201.16L430.851 201.165Z" fill="white"/>
<path d="M426.026 199.234C425.53 199.234 421.156 199.195 421.156 200.848C421.154 200.953 421.173 201.057 421.212 201.154C421.228 201.194 421.247 201.233 421.267 201.271L424.295 207.949V211.405C424.295 211.756 424.44 211.962 424.746 211.962H424.89C425.59 211.779 426.24 211.442 426.794 210.977L427.167 210.715C427.246 210.666 427.312 210.597 427.357 210.515C427.403 210.433 427.427 210.341 427.428 210.248V207.966L430.795 201.288C430.817 201.253 430.834 201.216 430.845 201.176C430.884 201.079 430.903 200.975 430.901 200.87C430.901 199.195 426.527 199.234 426.026 199.234ZM426.026 200.258C427.99 200.258 429.254 200.603 429.676 200.848C429.254 201.093 428.007 201.438 426.026 201.438C424.044 201.438 422.803 201.093 422.38 200.848C422.809 200.609 424.061 200.258 426.026 200.258ZM426.432 207.493C426.432 207.571 426.432 207.71 426.432 207.855V210.031L426.215 210.164C425.898 210.348 425.619 210.476 425.302 210.643V207.844C425.301 207.767 425.286 207.692 425.258 207.621L422.887 202.2C423.917 202.43 424.97 202.546 426.026 202.546C427.051 202.545 428.073 202.437 429.075 202.223L426.432 207.493Z" fill="white"/>
<path d="M436.165 214.616C433.987 216.193 431.364 217.037 428.675 217.026C422.62 217.026 417.455 213.091 416.242 207.287C416.788 207.261 417.311 207.057 417.731 206.706C418.151 206.356 418.445 205.878 418.568 205.345H421.407V204.293H418.579C418.472 203.745 418.185 203.25 417.763 202.885C417.342 202.52 416.81 202.306 416.253 202.278C416.749 200.266 417.727 198.404 419.101 196.853C420.475 195.302 422.206 194.108 424.144 193.374C426.081 192.639 428.169 192.386 430.226 192.636C432.283 192.886 434.249 193.632 435.954 194.81L436.588 193.93C434.701 192.626 432.52 191.809 430.24 191.551C427.96 191.294 425.652 191.604 423.521 192.455C421.391 193.306 419.503 194.67 418.027 196.427C416.551 198.183 415.533 200.277 415.062 202.523C414.631 202.723 414.265 203.042 414.009 203.443C413.753 203.844 413.617 204.31 413.617 204.785C413.617 205.261 413.753 205.727 414.009 206.127C414.265 206.528 414.631 206.848 415.062 207.047C415.711 210.179 417.418 212.992 419.898 215.012C422.377 217.032 425.477 218.136 428.675 218.139C431.588 218.145 434.429 217.227 436.789 215.518L436.165 214.616ZM414.739 204.782C414.737 204.441 414.86 204.11 415.086 203.853C415.312 203.597 415.624 203.432 415.964 203.391H416.131C416.406 203.39 416.676 203.471 416.905 203.623C417.135 203.775 417.314 203.992 417.42 204.246C417.526 204.5 417.555 204.78 417.501 205.05C417.448 205.321 417.316 205.569 417.122 205.764C416.928 205.959 416.68 206.092 416.41 206.147C416.14 206.201 415.86 206.174 415.605 206.068C415.351 205.963 415.133 205.785 414.98 205.556C414.827 205.327 414.745 205.058 414.745 204.782H414.739Z" fill="white"/>
<path d="M441.174 207.287C441.647 207.287 442.111 207.153 442.511 206.901C442.912 206.649 443.232 206.288 443.436 205.861C443.64 205.434 443.718 204.958 443.663 204.488C443.607 204.018 443.42 203.573 443.122 203.206C442.824 202.838 442.428 202.562 441.98 202.41C441.531 202.259 441.049 202.237 440.589 202.348C440.129 202.459 439.71 202.697 439.38 203.037C439.05 203.376 438.823 203.802 438.726 204.265H435.832V197.381H437.334C437.416 198.001 437.726 198.568 438.204 198.97C438.682 199.373 439.294 199.582 439.918 199.557C440.543 199.532 441.136 199.274 441.58 198.834C442.024 198.394 442.288 197.804 442.319 197.179C442.35 196.555 442.146 195.941 441.748 195.459C441.349 194.977 440.785 194.662 440.166 194.575C439.547 194.488 438.918 194.636 438.402 194.989C437.886 195.342 437.521 195.876 437.379 196.485L435.331 196.457C435.26 196.442 435.187 196.443 435.118 196.462C435.048 196.48 434.984 196.514 434.929 196.562C434.875 196.609 434.833 196.669 434.806 196.736C434.779 196.803 434.768 196.875 434.774 196.947V204.248H430.495V205.278H434.774V212.557C434.774 212.705 434.833 212.846 434.937 212.95C435.042 213.055 435.183 213.113 435.331 213.113H437.078C437.2 213.723 437.545 214.265 438.044 214.634C438.544 215.004 439.163 215.174 439.781 215.113C440.399 215.052 440.973 214.763 441.39 214.302C441.807 213.841 442.038 213.242 442.038 212.621C442.038 212 441.807 211.4 441.39 210.94C440.973 210.479 440.399 210.19 439.781 210.129C439.163 210.067 438.544 210.238 438.044 210.608C437.545 210.977 437.2 211.519 437.078 212.128H435.865L435.837 205.272H438.726C438.84 205.838 439.145 206.348 439.592 206.715C440.038 207.082 440.597 207.284 441.174 207.287ZM441.174 203.391C441.449 203.391 441.718 203.473 441.947 203.626C442.176 203.778 442.354 203.996 442.46 204.25C442.565 204.504 442.593 204.784 442.539 205.054C442.485 205.324 442.353 205.572 442.158 205.766C441.964 205.961 441.716 206.093 441.446 206.147C441.176 206.201 440.896 206.173 440.642 206.068C440.388 205.962 440.17 205.784 440.017 205.555C439.865 205.327 439.783 205.058 439.783 204.782C439.783 204.413 439.93 204.059 440.19 203.799C440.451 203.538 440.805 203.391 441.174 203.391ZM439.783 195.65C440.057 195.651 440.325 195.733 440.552 195.887C440.78 196.04 440.957 196.258 441.06 196.512C441.164 196.766 441.19 197.045 441.135 197.313C441.08 197.582 440.946 197.829 440.751 198.021C440.556 198.214 440.308 198.345 440.039 198.396C439.769 198.448 439.491 198.419 439.238 198.312C438.985 198.205 438.77 198.026 438.619 197.797C438.469 197.568 438.389 197.299 438.392 197.024C438.392 196.842 438.428 196.66 438.498 196.492C438.569 196.323 438.672 196.169 438.801 196.041C438.931 195.912 439.085 195.81 439.255 195.741C439.424 195.672 439.606 195.637 439.789 195.639L439.783 195.65ZM439.505 211.182C439.773 211.181 440.035 211.258 440.261 211.402C440.487 211.547 440.666 211.753 440.777 211.997C440.888 212.241 440.926 212.512 440.887 212.778C440.848 213.043 440.733 213.291 440.556 213.492C440.379 213.694 440.147 213.839 439.889 213.912C439.631 213.985 439.358 213.982 439.102 213.903C438.845 213.825 438.617 213.674 438.445 213.468C438.273 213.263 438.163 213.012 438.13 212.746C438.13 212.691 438.13 212.635 438.13 212.579C438.13 212.48 438.141 212.381 438.163 212.284C438.23 211.976 438.399 211.7 438.642 211.5C438.886 211.3 439.19 211.188 439.505 211.182Z" fill="white"/>
</g>
<path d="M419.303 248.909C421.291 248.909 422.761 247.635 422.761 245.955C422.761 244.065 421.585 243.393 419.359 243.043C417.315 242.735 416.951 242.231 416.951 241.251C416.951 240.313 417.665 239.627 419.037 239.627C420.423 239.627 421.151 240.145 421.389 241.405H422.481C422.285 239.627 421.039 238.647 419.037 238.647C417.147 238.647 415.817 239.823 415.817 241.363C415.817 243.141 417.063 243.799 419.163 244.121C421.067 244.429 421.585 244.905 421.585 246.039C421.585 247.173 420.591 247.929 419.303 247.929C417.287 247.929 416.811 246.921 416.657 245.731H415.481C415.663 247.439 416.629 248.909 419.303 248.909ZM424.847 248.783H426.009V240.201L431.063 248.783H432.463V238.773H431.301V247.047L426.429 238.773H424.847V248.783ZM438.212 248.909C440.2 248.909 441.67 247.635 441.67 245.955C441.67 244.065 440.494 243.393 438.268 243.043C436.224 242.735 435.86 242.231 435.86 241.251C435.86 240.313 436.574 239.627 437.946 239.627C439.332 239.627 440.06 240.145 440.298 241.405H441.39C441.194 239.627 439.948 238.647 437.946 238.647C436.056 238.647 434.726 239.823 434.726 241.363C434.726 243.141 435.972 243.799 438.072 244.121C439.976 244.429 440.494 244.905 440.494 246.039C440.494 247.173 439.5 247.929 438.212 247.929C436.196 247.929 435.72 246.921 435.566 245.731H434.39C434.572 247.439 435.538 248.909 438.212 248.909Z" fill="#161F31"/>
<rect x="373.5" y="170.5" width="110.304" height="94.6957" stroke="#51CCCA"/>
<path d="M424.33 49.5379V46.6362H431.874V49.5379H434.196L428.392 55.9215L422.009 49.5379H424.33Z" fill="#47D4E0" stroke="#161F31" stroke-width="0.8" stroke-linecap="round" stroke-linejoin="round"/>
<path d="M411.562 29.2263H412.723L415.625 32.128H416.785" stroke="#161F31" stroke-width="0.8" stroke-linecap="round" stroke-linejoin="round"/>
<path d="M445.222 29.2263H444.061L441.159 32.128H439.999" stroke="#161F31" stroke-width="0.8" stroke-linecap="round" stroke-linejoin="round"/>
<path d="M416.785 38.5115H415.624L412.723 41.4131H411.562" stroke="#161F31" stroke-width="0.8" stroke-linecap="round" stroke-linejoin="round"/>
<path d="M439.999 38.5115H441.159L444.061 41.4131H445.222" stroke="#161F31" stroke-width="0.8" stroke-linecap="round" stroke-linejoin="round"/>
<path d="M417.366 35.0295H411.562" stroke="#161F31" stroke-width="0.8" stroke-linecap="round" stroke-linejoin="round"/>
<path d="M439.418 35.0295H445.222" stroke="#161F31" stroke-width="0.8" stroke-linecap="round" stroke-linejoin="round"/>
<path d="M427.096 22.3447L429.042 23.6419L430.987 22.3447" stroke="#161F31" stroke-width="0.8" stroke-linecap="round" stroke-linejoin="round"/>
<path d="M429.041 18.4534V23.6422" stroke="#161F31" stroke-width="0.8" stroke-linecap="round"/>
<rect x="425.549" y="14.3131" width="6.98325" height="4.38884" fill="#FDDD00" stroke="#161F31" stroke-width="0.8"/>
<rect x="417.366" y="24.5835" width="22.0526" height="22.0526" rx="2.78261" fill="#8B59FC" stroke="#161F31" stroke-width="0.8"/>
<path d="M431.423 29.7716C430.751 30.2329 429.822 29.9183 429.559 29.1472C429.182 28.0446 427.617 28.0277 427.241 29.1303C426.978 29.8988 426.053 30.2022 425.387 29.7384L425.268 29.6558C424.333 29.0054 423.111 29.9241 423.475 31.0028C423.734 31.7681 423.164 32.5613 422.356 32.5613H422.216C421.09 32.5613 420.637 34.0138 421.563 34.6542C422.225 35.1116 422.224 36.09 421.561 36.5454C420.632 37.183 421.081 38.6369 422.207 38.6403L422.346 38.6407C423.154 38.6431 423.721 39.4381 423.46 40.2027C423.092 41.2801 424.312 42.2027 425.249 41.5552L425.368 41.4728C426.036 41.011 426.96 41.3173 427.22 42.0866C427.593 43.1902 429.158 43.1776 429.538 42.0765C429.804 41.3063 430.734 40.9943 431.404 41.4577L431.567 41.5702C432.496 42.213 433.707 41.2971 433.342 40.2275C433.082 39.4656 433.65 38.6743 434.455 38.6767L434.541 38.677C435.675 38.6804 436.136 37.2187 435.205 36.5707C434.542 36.1096 434.544 35.1288 435.208 34.6697C436.141 34.0245 435.685 32.5613 434.55 32.5613H434.465C433.66 32.5613 433.095 31.7683 433.357 31.0074C433.726 29.9391 432.518 29.0195 431.586 29.6593L431.423 29.7716Z" fill="#F04657" stroke="#161F31" stroke-width="0.8"/>
<circle cx="428.683" cy="32.4181" r="0.870495" fill="#161F31"/>
<ellipse cx="432.745" cy="35.9" rx="0.870495" ry="0.870495" transform="rotate(90 432.745 35.9)" fill="#161F31"/>
<circle cx="428.683" cy="35.9" r="0.870495" fill="#161F31"/>
<circle cx="428.683" cy="39.382" r="0.870495" fill="#161F31"/>
<ellipse cx="424.621" cy="35.9" rx="0.870495" ry="0.870495" transform="rotate(90 424.621 35.9)" fill="#161F31"/>
<circle cx="447.543" cy="29.2264" r="1.92132" fill="#FDDD00" stroke="#161F31" stroke-width="0.8"/>
<circle cx="409.762" cy="29.2261" r="1.92132" fill="#FDDD00" stroke="#161F31" stroke-width="0.8"/>
<circle cx="447.543" cy="35.0296" r="1.92132" fill="#FDDD00" stroke="#161F31" stroke-width="0.8"/>
<circle cx="409.762" cy="35.0296" r="1.92132" fill="#FDDD00" stroke="#161F31" stroke-width="0.8"/>
<circle cx="447.543" cy="40.8328" r="1.92132" fill="#FDDD00" stroke="#161F31" stroke-width="0.8"/>
<circle cx="409.762" cy="40.8328" r="1.92132" fill="#FDDD00" stroke="#161F31" stroke-width="0.8"/>
<path d="M400.306 79.052H406.396V78.058H401.524V74.432H405.248V73.438H401.524V70.036H406.144V69.042H400.306V79.052ZM408.151 79.052H409.313V74.614C409.313 73.298 410.279 72.612 411.357 72.612C412.533 72.612 413.079 73.186 413.079 74.474V79.052H414.241V74.558C414.241 72.43 413.177 71.604 411.665 71.604C410.461 71.604 409.649 72.206 409.313 72.892V71.73H408.151V79.052ZM419.277 79.178C420.341 79.178 421.363 78.506 421.783 77.792V79.052H422.945V68.23H421.783V72.906C421.363 72.192 420.607 71.604 419.389 71.604C417.373 71.604 415.973 73.186 415.973 75.426V75.538C415.973 77.82 417.359 79.178 419.277 79.178ZM419.403 78.212C418.171 78.212 417.177 77.33 417.177 75.482V75.37C417.177 73.592 418.045 72.57 419.501 72.57C420.929 72.57 421.825 73.452 421.825 75.328V75.44C421.825 77.316 420.761 78.212 419.403 78.212ZM425.296 81.6H426.458V77.848C426.878 78.576 427.732 79.178 428.936 79.178C430.952 79.178 432.268 77.638 432.268 75.398V75.286C432.268 73.004 430.854 71.604 428.936 71.604C427.872 71.604 426.878 72.248 426.458 72.962V71.73H425.296V81.6ZM428.824 78.212C427.396 78.212 426.416 77.33 426.416 75.454V75.342C426.416 73.466 427.452 72.57 428.81 72.57C430.042 72.57 431.064 73.494 431.064 75.342V75.454C431.064 77.232 430.28 78.212 428.824 78.212ZM437.125 78.212C435.641 78.212 434.731 77.12 434.731 75.454V75.342C434.731 73.662 435.655 72.57 437.125 72.57C438.581 72.57 439.519 73.662 439.519 75.356V75.454C439.519 77.106 438.595 78.212 437.125 78.212ZM437.111 79.178C439.197 79.178 440.723 77.652 440.723 75.44V75.328C440.723 73.13 439.197 71.604 437.125 71.604C435.053 71.604 433.527 73.144 433.527 75.342V75.454C433.527 77.596 435.025 79.178 437.111 79.178ZM442.55 79.052H443.712V71.73H442.55V79.052ZM443.11 70.204C443.53 70.204 443.88 69.854 443.88 69.434C443.88 69.014 443.53 68.664 443.11 68.664C442.69 68.664 442.34 69.014 442.34 69.434C442.34 69.854 442.69 70.204 443.11 70.204ZM446.091 79.052H447.253V74.614C447.253 73.298 448.219 72.612 449.297 72.612C450.473 72.612 451.019 73.186 451.019 74.474V79.052H452.181V74.558C452.181 72.43 451.117 71.604 449.605 71.604C448.401 71.604 447.589 72.206 447.253 72.892V71.73H446.091V79.052ZM456.684 79.15C457.16 79.15 457.44 79.08 457.678 78.996V78.016C457.426 78.114 457.146 78.17 456.782 78.17C456.194 78.17 455.872 77.82 455.872 77.106V72.71H457.58V71.73H455.872V70.064H454.71V71.73H453.66V72.71H454.71V77.218C454.71 78.366 455.354 79.15 456.684 79.15Z" fill="#161F31"/>
<rect x="373.5" y="0.5" width="110.304" height="94.965" stroke="#51CCCA"/>
<path d="M431 132L431 132.5L431.5 132.5L431.5 132L431 132ZM431 97L428.113 102L433.887 102L431 97ZM431 131.5L302 131.5L302 132.5L431 132.5L431 131.5ZM431.5 132L431.5 101.5L430.5 101.5L430.5 132L431.5 132Z" fill="#161F31"/>
<path d="M431 140L431.5 140L431.5 139.5L431 139.5L431 140ZM431 169L433.887 164L428.113 164L431 169ZM431 139.5L302 139.5L302 140.5L431 140.5L431 139.5ZM430.5 140L430.5 164.5L431.5 164.5L431.5 140L430.5 140Z" fill="#161F31"/>
<path d="M121.244 317.338C121.244 317.65 121.176 317.927 121.039 318.168C120.909 318.409 120.733 318.611 120.512 318.773C120.284 318.943 120.014 319.07 119.701 319.154C119.395 319.239 119.063 319.281 118.705 319.281C118.282 319.281 117.891 319.229 117.533 319.125C117.182 319.021 116.876 318.861 116.615 318.646C116.348 318.438 116.137 318.174 115.98 317.855C115.831 317.53 115.74 317.149 115.707 316.713H113.363C113.37 317.396 113.507 318.002 113.773 318.529C114.047 319.057 114.415 319.516 114.877 319.906C115.378 320.323 115.967 320.642 116.645 320.863C117.322 321.078 118.008 321.186 118.705 321.186C119.363 321.186 119.988 321.104 120.58 320.941C121.173 320.772 121.693 320.521 122.143 320.189C122.585 319.87 122.937 319.47 123.197 318.988C123.464 318.507 123.598 317.95 123.598 317.318C123.598 316.635 123.445 316.033 123.139 315.512C122.839 314.984 122.439 314.532 121.938 314.154C121.534 313.855 121.091 313.601 120.609 313.393C120.134 313.178 119.646 312.999 119.145 312.855C118.747 312.738 118.367 312.611 118.002 312.475C117.644 312.338 117.325 312.178 117.045 311.996C116.771 311.814 116.553 311.602 116.391 311.361C116.228 311.114 116.143 310.827 116.137 310.502C116.137 310.196 116.199 309.919 116.322 309.672C116.446 309.424 116.618 309.213 116.84 309.037C117.061 308.868 117.322 308.738 117.621 308.646C117.927 308.549 118.259 308.5 118.617 308.5C119.027 308.5 119.389 308.562 119.701 308.686C120.02 308.803 120.29 308.965 120.512 309.174C120.727 309.389 120.893 309.646 121.01 309.945C121.133 310.238 121.212 310.564 121.244 310.922H123.568C123.568 310.277 123.438 309.691 123.178 309.164C122.924 308.63 122.576 308.171 122.133 307.787C121.69 307.41 121.169 307.117 120.57 306.908C119.978 306.693 119.337 306.586 118.646 306.586C117.995 306.586 117.374 306.677 116.781 306.859C116.195 307.035 115.681 307.292 115.238 307.631C114.796 307.976 114.444 308.393 114.184 308.881C113.923 309.363 113.793 309.906 113.793 310.512C113.793 311.072 113.904 311.576 114.125 312.025C114.353 312.468 114.665 312.865 115.062 313.217C115.46 313.562 115.938 313.874 116.498 314.154C117.064 314.428 117.683 314.659 118.354 314.848C118.79 314.971 119.184 315.111 119.535 315.268C119.893 315.417 120.202 315.587 120.463 315.775C120.71 315.977 120.902 316.205 121.039 316.459C121.176 316.713 121.244 317.006 121.244 317.338ZM132.35 321H134.733V320.834C134.603 320.561 134.502 320.235 134.43 319.857C134.365 319.473 134.333 319.044 134.333 318.568V313.871C134.333 313.272 134.222 312.745 134.001 312.289C133.779 311.827 133.473 311.446 133.083 311.146C132.692 310.847 132.227 310.622 131.686 310.473C131.152 310.316 130.576 310.238 129.958 310.238C129.268 310.238 128.652 310.329 128.112 310.512C127.578 310.688 127.129 310.928 126.764 311.234C126.387 311.534 126.1 311.879 125.905 312.27C125.71 312.66 125.609 313.067 125.602 313.49H127.946C127.946 313.288 127.982 313.1 128.054 312.924C128.132 312.742 128.249 312.589 128.405 312.465C128.561 312.328 128.757 312.221 128.991 312.143C129.232 312.064 129.512 312.025 129.831 312.025C130.182 312.025 130.492 312.071 130.759 312.162C131.032 312.247 131.263 312.37 131.452 312.533C131.628 312.696 131.761 312.888 131.852 313.109C131.95 313.331 131.999 313.578 131.999 313.852V314.564H130.3C129.538 314.564 128.854 314.636 128.249 314.779C127.65 314.923 127.145 315.131 126.735 315.404C126.292 315.697 125.954 316.068 125.72 316.518C125.492 316.96 125.378 317.471 125.378 318.051C125.378 318.5 125.466 318.92 125.641 319.311C125.824 319.695 126.078 320.023 126.403 320.297C126.722 320.577 127.106 320.798 127.555 320.961C128.011 321.117 128.512 321.195 129.059 321.195C129.398 321.195 129.714 321.163 130.007 321.098C130.3 321.033 130.573 320.941 130.827 320.824C131.081 320.714 131.309 320.583 131.511 320.434C131.719 320.277 131.904 320.115 132.067 319.945C132.1 320.147 132.136 320.342 132.175 320.531C132.22 320.714 132.279 320.87 132.35 321ZM129.509 319.32C129.209 319.32 128.949 319.285 128.727 319.213C128.506 319.135 128.32 319.031 128.171 318.9C128.021 318.77 127.907 318.614 127.829 318.432C127.751 318.243 127.712 318.041 127.712 317.826C127.712 317.566 127.757 317.331 127.848 317.123C127.946 316.915 128.093 316.736 128.288 316.586C128.509 316.41 128.805 316.277 129.177 316.186C129.548 316.088 129.987 316.039 130.495 316.039H131.999V317.992C131.914 318.161 131.794 318.324 131.637 318.48C131.481 318.637 131.296 318.777 131.081 318.9C130.866 319.024 130.625 319.125 130.358 319.203C130.098 319.281 129.815 319.32 129.509 319.32ZM138.642 310.434H136.611V321H138.759V312.885C138.798 312.787 138.841 312.699 138.886 312.621C138.938 312.543 138.997 312.475 139.062 312.416C139.147 312.331 139.248 312.27 139.365 312.23C139.489 312.185 139.629 312.162 139.785 312.162C139.928 312.162 140.055 312.182 140.166 312.221C140.283 312.26 140.384 312.322 140.468 312.406C140.553 312.491 140.615 312.608 140.654 312.758C140.699 312.901 140.722 313.077 140.722 313.285V321H142.832V313.158C142.832 313.093 142.832 313.044 142.832 313.012C142.832 312.973 142.832 312.94 142.832 312.914C142.858 312.803 142.897 312.706 142.949 312.621C143.001 312.53 143.066 312.452 143.144 312.387C143.229 312.315 143.326 312.26 143.437 312.221C143.548 312.182 143.678 312.162 143.828 312.162C143.971 312.162 144.101 312.182 144.218 312.221C144.342 312.26 144.446 312.322 144.531 312.406C144.615 312.497 144.681 312.618 144.726 312.768C144.772 312.911 144.795 313.087 144.795 313.295V321H146.943V313.314C146.943 312.761 146.884 312.289 146.767 311.898C146.657 311.501 146.497 311.179 146.289 310.932C146.08 310.697 145.833 310.525 145.546 310.414C145.267 310.297 144.957 310.238 144.619 310.238C144.358 310.238 144.117 310.271 143.896 310.336C143.681 310.401 143.486 310.492 143.31 310.609C143.173 310.701 143.046 310.811 142.929 310.941C142.812 311.072 142.708 311.212 142.617 311.361C142.552 311.199 142.474 311.055 142.382 310.932C142.291 310.801 142.187 310.691 142.07 310.6C141.92 310.476 141.741 310.385 141.533 310.326C141.324 310.268 141.09 310.238 140.83 310.238C140.328 310.238 139.899 310.359 139.541 310.6C139.189 310.84 138.912 311.173 138.711 311.596L138.642 310.434ZM149.045 325.062H151.379V320.043C151.503 320.18 151.636 320.307 151.78 320.424C151.923 320.541 152.073 320.645 152.229 320.736C152.496 320.886 152.786 321 153.098 321.078C153.417 321.156 153.765 321.195 154.143 321.195C154.807 321.195 155.396 321.059 155.911 320.785C156.425 320.512 156.858 320.134 157.209 319.652C157.561 319.177 157.825 318.611 158 317.953C158.183 317.296 158.274 316.586 158.274 315.824V315.619C158.274 314.825 158.183 314.099 158 313.441C157.818 312.777 157.554 312.208 157.209 311.732C156.858 311.257 156.422 310.889 155.901 310.629C155.386 310.368 154.791 310.238 154.114 310.238C153.769 310.238 153.443 310.277 153.137 310.355C152.831 310.427 152.551 310.531 152.297 310.668C152.102 310.772 151.92 310.896 151.75 311.039C151.581 311.182 151.425 311.342 151.282 311.518L151.194 310.434H149.045V325.062ZM155.94 315.619V315.824C155.94 316.293 155.894 316.739 155.803 317.162C155.712 317.579 155.565 317.95 155.364 318.275C155.168 318.594 154.914 318.848 154.602 319.037C154.296 319.219 153.925 319.311 153.489 319.311C153.222 319.311 152.978 319.281 152.756 319.223C152.535 319.158 152.336 319.073 152.161 318.969C151.991 318.858 151.842 318.728 151.711 318.578C151.581 318.428 151.47 318.262 151.379 318.08V313.383C151.483 313.188 151.604 313.012 151.741 312.855C151.884 312.699 152.05 312.569 152.239 312.465C152.401 312.367 152.587 312.292 152.795 312.24C153.004 312.188 153.228 312.162 153.469 312.162C153.905 312.162 154.28 312.253 154.592 312.436C154.905 312.618 155.162 312.865 155.364 313.178C155.559 313.49 155.702 313.858 155.793 314.281C155.891 314.698 155.94 315.144 155.94 315.619ZM161.187 306V307.943H164.527V319.066H161.187V321H170.083V319.066H166.88V306H161.187ZM177.381 321.195C178.41 321.195 179.285 320.993 180.008 320.59C180.737 320.186 181.277 319.73 181.629 319.223L180.379 318.012C180.053 318.428 179.64 318.751 179.139 318.979C178.637 319.2 178.097 319.311 177.518 319.311C177.094 319.311 176.704 319.239 176.346 319.096C175.994 318.952 175.688 318.751 175.428 318.49C175.167 318.243 174.962 317.963 174.812 317.65C174.663 317.338 174.552 316.951 174.48 316.488V316.439H181.805V315.434C181.805 314.678 181.704 313.982 181.502 313.344C181.3 312.706 181.001 312.156 180.604 311.693C180.206 311.238 179.715 310.883 179.129 310.629C178.543 310.368 177.869 310.238 177.107 310.238C176.424 310.238 175.779 310.368 175.174 310.629C174.575 310.883 174.048 311.247 173.592 311.723C173.136 312.198 172.778 312.771 172.518 313.441C172.257 314.112 172.127 314.861 172.127 315.688V316.088C172.127 316.811 172.251 317.484 172.498 318.109C172.752 318.728 173.11 319.265 173.572 319.721C174.035 320.183 174.588 320.544 175.232 320.805C175.883 321.065 176.6 321.195 177.381 321.195ZM177.098 312.133C177.488 312.133 177.83 312.201 178.123 312.338C178.423 312.468 178.67 312.644 178.865 312.865C179.067 313.093 179.223 313.36 179.334 313.666C179.445 313.965 179.5 314.268 179.5 314.574V314.73H174.529C174.601 314.327 174.712 313.965 174.861 313.646C175.011 313.327 175.197 313.054 175.418 312.826C175.639 312.605 175.89 312.436 176.17 312.318C176.456 312.195 176.766 312.133 177.098 312.133ZM202.621 321H205.004V320.834C204.873 320.561 204.772 320.235 204.701 319.857C204.636 319.473 204.603 319.044 204.603 318.568V313.871C204.603 313.272 204.492 312.745 204.271 312.289C204.05 311.827 203.744 311.446 203.353 311.146C202.963 310.847 202.497 310.622 201.957 310.473C201.423 310.316 200.847 310.238 200.228 310.238C199.538 310.238 198.923 310.329 198.382 310.512C197.849 310.688 197.399 310.928 197.035 311.234C196.657 311.534 196.371 311.879 196.175 312.27C195.98 312.66 195.879 313.067 195.873 313.49H198.216C198.216 313.288 198.252 313.1 198.324 312.924C198.402 312.742 198.519 312.589 198.675 312.465C198.832 312.328 199.027 312.221 199.261 312.143C199.502 312.064 199.782 312.025 200.101 312.025C200.453 312.025 200.762 312.071 201.029 312.162C201.302 312.247 201.533 312.37 201.722 312.533C201.898 312.696 202.032 312.888 202.123 313.109C202.22 313.331 202.269 313.578 202.269 313.852V314.564H200.57C199.808 314.564 199.125 314.636 198.519 314.779C197.92 314.923 197.416 315.131 197.005 315.404C196.563 315.697 196.224 316.068 195.99 316.518C195.762 316.96 195.648 317.471 195.648 318.051C195.648 318.5 195.736 318.92 195.912 319.311C196.094 319.695 196.348 320.023 196.673 320.297C196.992 320.577 197.377 320.798 197.826 320.961C198.282 321.117 198.783 321.195 199.33 321.195C199.668 321.195 199.984 321.163 200.277 321.098C200.57 321.033 200.843 320.941 201.097 320.824C201.351 320.714 201.579 320.583 201.781 320.434C201.989 320.277 202.175 320.115 202.338 319.945C202.37 320.147 202.406 320.342 202.445 320.531C202.49 320.714 202.549 320.87 202.621 321ZM199.779 319.32C199.479 319.32 199.219 319.285 198.998 319.213C198.776 319.135 198.591 319.031 198.441 318.9C198.291 318.77 198.177 318.614 198.099 318.432C198.021 318.243 197.982 318.041 197.982 317.826C197.982 317.566 198.028 317.331 198.119 317.123C198.216 316.915 198.363 316.736 198.558 316.586C198.78 316.41 199.076 316.277 199.447 316.186C199.818 316.088 200.257 316.039 200.765 316.039H202.269V317.992C202.185 318.161 202.064 318.324 201.908 318.48C201.752 318.637 201.566 318.777 201.351 318.9C201.136 319.024 200.895 319.125 200.629 319.203C200.368 319.281 200.085 319.32 199.779 319.32ZM207.604 325.062H209.938V320.043C210.062 320.18 210.195 320.307 210.338 320.424C210.482 320.541 210.631 320.645 210.787 320.736C211.054 320.886 211.344 321 211.657 321.078C211.976 321.156 212.324 321.195 212.702 321.195C213.366 321.195 213.955 321.059 214.469 320.785C214.983 320.512 215.416 320.134 215.768 319.652C216.12 319.177 216.383 318.611 216.559 317.953C216.741 317.296 216.832 316.586 216.832 315.824V315.619C216.832 314.825 216.741 314.099 216.559 313.441C216.377 312.777 216.113 312.208 215.768 311.732C215.416 311.257 214.98 310.889 214.459 310.629C213.945 310.368 213.349 310.238 212.672 310.238C212.327 310.238 212.002 310.277 211.696 310.355C211.39 310.427 211.11 310.531 210.856 310.668C210.661 310.772 210.478 310.896 210.309 311.039C210.14 311.182 209.983 311.342 209.84 311.518L209.752 310.434H207.604V325.062ZM214.498 315.619V315.824C214.498 316.293 214.453 316.739 214.362 317.162C214.271 317.579 214.124 317.95 213.922 318.275C213.727 318.594 213.473 318.848 213.161 319.037C212.855 319.219 212.483 319.311 212.047 319.311C211.78 319.311 211.536 319.281 211.315 319.223C211.093 319.158 210.895 319.073 210.719 318.969C210.55 318.858 210.4 318.728 210.27 318.578C210.14 318.428 210.029 318.262 209.938 318.08V313.383C210.042 313.188 210.162 313.012 210.299 312.855C210.442 312.699 210.608 312.569 210.797 312.465C210.96 312.367 211.146 312.292 211.354 312.24C211.562 312.188 211.787 312.162 212.028 312.162C212.464 312.162 212.838 312.253 213.151 312.436C213.463 312.618 213.72 312.865 213.922 313.178C214.118 313.49 214.261 313.858 214.352 314.281C214.45 314.698 214.498 315.144 214.498 315.619ZM219.316 325.062H221.65V320.043C221.773 320.18 221.907 320.307 222.05 320.424C222.193 320.541 222.343 320.645 222.499 320.736C222.766 320.886 223.056 321 223.368 321.078C223.687 321.156 224.036 321.195 224.413 321.195C225.077 321.195 225.667 321.059 226.181 320.785C226.695 320.512 227.128 320.134 227.48 319.652C227.831 319.177 228.095 318.611 228.271 317.953C228.453 317.296 228.544 316.586 228.544 315.824V315.619C228.544 314.825 228.453 314.099 228.271 313.441C228.088 312.777 227.825 312.208 227.48 311.732C227.128 311.257 226.692 310.889 226.171 310.629C225.657 310.368 225.061 310.238 224.384 310.238C224.039 310.238 223.713 310.277 223.407 310.355C223.101 310.427 222.821 310.531 222.568 310.668C222.372 310.772 222.19 310.896 222.021 311.039C221.851 311.182 221.695 311.342 221.552 311.518L221.464 310.434H219.316V325.062ZM226.21 315.619V315.824C226.21 316.293 226.165 316.739 226.073 317.162C225.982 317.579 225.836 317.95 225.634 318.275C225.439 318.594 225.185 318.848 224.872 319.037C224.566 319.219 224.195 319.311 223.759 319.311C223.492 319.311 223.248 319.281 223.027 319.223C222.805 319.158 222.607 319.073 222.431 318.969C222.262 318.858 222.112 318.728 221.982 318.578C221.851 318.428 221.741 318.262 221.65 318.08V313.383C221.754 313.188 221.874 313.012 222.011 312.855C222.154 312.699 222.32 312.569 222.509 312.465C222.672 312.367 222.857 312.292 223.066 312.24C223.274 312.188 223.499 312.162 223.739 312.162C224.176 312.162 224.55 312.253 224.863 312.436C225.175 312.618 225.432 312.865 225.634 313.178C225.829 313.49 225.973 313.858 226.064 314.281C226.161 314.698 226.21 315.144 226.21 315.619ZM243.598 321H245.581L246.919 315.004L247.153 313.695L247.397 315.004L248.764 321H250.747L252.788 310.434H250.669L249.721 316.879L249.536 318.168L249.311 316.889L247.934 310.434H246.401L245.024 316.908L244.809 318.129L244.643 316.908L243.667 310.434H241.557L243.598 321ZM254.968 310.434V312.377H258.22V319.066H254.968V321H263.679V319.066H260.574V310.434H254.968ZM258.005 307.699C258.005 307.947 258.064 308.165 258.181 308.354C258.305 308.536 258.484 308.663 258.718 308.734C258.946 308.806 259.155 308.822 259.343 308.783C259.532 308.744 259.695 308.663 259.832 308.539C260.105 308.467 260.313 308.327 260.457 308.119C260.6 307.904 260.649 307.654 260.603 307.367C260.571 307.087 260.444 306.859 260.222 306.684C260.007 306.501 259.724 306.41 259.373 306.41C259.164 306.41 258.976 306.443 258.806 306.508C258.643 306.566 258.504 306.651 258.386 306.762C258.263 306.879 258.168 307.019 258.103 307.182C258.038 307.338 258.005 307.51 258.005 307.699ZM270.83 307.855H268.487V310.434H265.928V312.182H268.487V317.377C268.487 318.054 268.575 318.633 268.75 319.115C268.933 319.597 269.183 319.991 269.502 320.297C269.821 320.609 270.202 320.84 270.645 320.99C271.094 321.133 271.586 321.205 272.12 321.205C272.413 321.205 272.705 321.189 272.998 321.156C273.298 321.13 273.584 321.091 273.858 321.039C274.131 320.987 274.385 320.925 274.62 320.854C274.86 320.775 275.066 320.684 275.235 320.58L274.981 318.969C274.864 318.995 274.717 319.027 274.541 319.066C274.372 319.099 274.19 319.128 273.995 319.154C273.793 319.187 273.584 319.213 273.37 319.232C273.155 319.252 272.946 319.262 272.745 319.262C272.465 319.262 272.207 319.229 271.973 319.164C271.739 319.099 271.537 318.988 271.368 318.832C271.198 318.682 271.065 318.477 270.967 318.217C270.876 317.95 270.83 317.621 270.83 317.23V312.182H274.805V310.434H270.83V307.855ZM280.189 311.938V306H277.855V321H280.189V313.354C280.299 313.184 280.426 313.031 280.57 312.895C280.719 312.758 280.879 312.641 281.048 312.543C281.25 312.419 281.471 312.325 281.712 312.26C281.96 312.195 282.22 312.162 282.493 312.162C282.845 312.162 283.154 312.211 283.421 312.309C283.695 312.4 283.926 312.543 284.114 312.738C284.297 312.921 284.433 313.158 284.525 313.451C284.622 313.744 284.671 314.086 284.671 314.477V321H287.005V314.496C287.005 313.747 286.914 313.106 286.732 312.572C286.556 312.032 286.305 311.589 285.98 311.244C285.654 310.899 285.26 310.645 284.798 310.482C284.342 310.32 283.838 310.238 283.284 310.238C282.887 310.238 282.51 310.297 282.152 310.414C281.8 310.525 281.478 310.688 281.185 310.902C280.996 311.033 280.817 311.186 280.648 311.361C280.478 311.537 280.325 311.729 280.189 311.938ZM305.995 315.482L308.72 321H311.229V320.873L308.192 314.926C308.583 314.75 308.938 314.542 309.257 314.301C309.576 314.06 309.849 313.78 310.077 313.461C310.305 313.142 310.481 312.784 310.604 312.387C310.735 311.99 310.8 311.547 310.8 311.059C310.8 310.349 310.676 309.73 310.429 309.203C310.181 308.669 309.836 308.223 309.393 307.865C308.944 307.514 308.41 307.247 307.792 307.064C307.173 306.882 306.496 306.788 305.761 306.781H301.249V321H303.593V315.482H305.995ZM303.593 313.568V308.695H305.761C306.164 308.702 306.529 308.757 306.854 308.861C307.18 308.959 307.457 309.105 307.684 309.301C307.932 309.509 308.117 309.77 308.241 310.082C308.371 310.388 308.436 310.746 308.436 311.156C308.436 311.521 308.378 311.846 308.261 312.133C308.143 312.419 307.981 312.66 307.772 312.855C307.538 313.083 307.251 313.259 306.913 313.383C306.581 313.5 306.207 313.562 305.79 313.568H303.593ZM317.921 321.195C318.95 321.195 319.826 320.993 320.548 320.59C321.278 320.186 321.818 319.73 322.17 319.223L320.92 318.012C320.594 318.428 320.181 318.751 319.679 318.979C319.178 319.2 318.638 319.311 318.058 319.311C317.635 319.311 317.244 319.239 316.886 319.096C316.535 318.952 316.229 318.751 315.968 318.49C315.708 318.243 315.503 317.963 315.353 317.65C315.203 317.338 315.093 316.951 315.021 316.488V316.439H322.345V315.434C322.345 314.678 322.244 313.982 322.043 313.344C321.841 312.706 321.541 312.156 321.144 311.693C320.747 311.238 320.255 310.883 319.67 310.629C319.084 310.368 318.41 310.238 317.648 310.238C316.964 310.238 316.32 310.368 315.714 310.629C315.115 310.883 314.588 311.247 314.132 311.723C313.677 312.198 313.319 312.771 313.058 313.441C312.798 314.112 312.668 314.861 312.668 315.688V316.088C312.668 316.811 312.791 317.484 313.039 318.109C313.293 318.728 313.651 319.265 314.113 319.721C314.575 320.183 315.129 320.544 315.773 320.805C316.424 321.065 317.14 321.195 317.921 321.195ZM317.638 312.133C318.029 312.133 318.371 312.201 318.664 312.338C318.963 312.468 319.211 312.644 319.406 312.865C319.608 313.093 319.764 313.36 319.875 313.666C319.985 313.965 320.041 314.268 320.041 314.574V314.73H315.07C315.142 314.327 315.252 313.965 315.402 313.646C315.552 313.327 315.737 313.054 315.959 312.826C316.18 312.605 316.431 312.436 316.711 312.318C316.997 312.195 317.306 312.133 317.638 312.133ZM324.389 315.639V315.844C324.389 316.605 324.487 317.315 324.682 317.973C324.877 318.624 325.154 319.187 325.512 319.662C325.87 320.144 326.306 320.521 326.821 320.795C327.335 321.062 327.914 321.195 328.559 321.195C329.171 321.195 329.711 321.085 330.18 320.863C330.649 320.635 331.052 320.313 331.391 319.896L331.498 321H333.618V306H331.284V311.42C330.945 311.042 330.554 310.753 330.112 310.551C329.676 310.342 329.164 310.238 328.579 310.238C327.927 310.238 327.342 310.372 326.821 310.639C326.306 310.899 325.87 311.267 325.512 311.742C325.148 312.217 324.868 312.787 324.672 313.451C324.483 314.109 324.389 314.838 324.389 315.639ZM326.723 315.844V315.639C326.723 315.163 326.769 314.717 326.86 314.301C326.951 313.878 327.097 313.507 327.299 313.188C327.488 312.868 327.735 312.618 328.041 312.436C328.354 312.253 328.728 312.162 329.164 312.162C329.685 312.162 330.115 312.279 330.454 312.514C330.799 312.742 331.075 313.051 331.284 313.441V317.982C331.075 318.38 330.799 318.695 330.454 318.93C330.108 319.158 329.672 319.271 329.145 319.271C328.715 319.271 328.347 319.184 328.041 319.008C327.735 318.826 327.485 318.575 327.289 318.256C327.094 317.95 326.951 317.589 326.86 317.172C326.769 316.755 326.723 316.312 326.723 315.844ZM336.95 310.434V312.377H340.202V319.066H336.95V321H345.661V319.066H342.556V310.434H336.95ZM339.988 307.699C339.988 307.947 340.046 308.165 340.163 308.354C340.287 308.536 340.466 308.663 340.7 308.734C340.928 308.806 341.137 308.822 341.325 308.783C341.514 308.744 341.677 308.663 341.814 308.539C342.087 308.467 342.295 308.327 342.439 308.119C342.582 307.904 342.631 307.654 342.585 307.367C342.553 307.087 342.426 306.859 342.204 306.684C341.989 306.501 341.706 306.41 341.355 306.41C341.146 306.41 340.958 306.443 340.788 306.508C340.626 306.566 340.486 306.651 340.368 306.762C340.245 306.879 340.15 307.019 340.085 307.182C340.02 307.338 339.988 307.51 339.988 307.699ZM355.029 318.139C355.029 318.308 354.99 318.464 354.912 318.607C354.84 318.744 354.73 318.871 354.58 318.988C354.398 319.132 354.154 319.245 353.848 319.33C353.548 319.415 353.197 319.457 352.793 319.457C352.493 319.457 352.197 319.428 351.904 319.369C351.611 319.304 351.351 319.2 351.123 319.057C350.889 318.92 350.693 318.741 350.537 318.52C350.387 318.292 350.303 318.015 350.283 317.689H348.018C348.018 318.126 348.122 318.555 348.33 318.979C348.538 319.402 348.844 319.776 349.248 320.102C349.645 320.434 350.137 320.701 350.723 320.902C351.315 321.104 351.992 321.205 352.754 321.205C353.438 321.205 354.059 321.127 354.619 320.971C355.179 320.814 355.661 320.596 356.064 320.316C356.462 320.036 356.768 319.701 356.982 319.311C357.204 318.92 357.314 318.49 357.314 318.021C357.314 317.54 357.21 317.123 357.002 316.771C356.794 316.42 356.501 316.114 356.123 315.854C355.745 315.606 355.29 315.398 354.756 315.229C354.222 315.059 353.633 314.916 352.988 314.799C352.526 314.721 352.142 314.633 351.836 314.535C351.536 314.438 351.302 314.33 351.133 314.213C350.951 314.102 350.824 313.975 350.752 313.832C350.68 313.682 350.645 313.516 350.645 313.334C350.645 313.158 350.687 312.992 350.771 312.836C350.856 312.673 350.983 312.533 351.152 312.416C351.322 312.286 351.536 312.185 351.797 312.113C352.064 312.035 352.373 311.996 352.725 311.996C353.109 311.996 353.444 312.048 353.73 312.152C354.017 312.25 354.251 312.383 354.434 312.553C354.59 312.696 354.707 312.859 354.785 313.041C354.87 313.217 354.912 313.402 354.912 313.598H357.246C357.246 313.122 357.142 312.68 356.934 312.27C356.725 311.859 356.429 311.505 356.045 311.205C355.654 310.906 355.179 310.671 354.619 310.502C354.059 310.326 353.428 310.238 352.725 310.238C352.067 310.238 351.468 310.323 350.928 310.492C350.394 310.661 349.938 310.893 349.561 311.186C349.176 311.479 348.88 311.82 348.672 312.211C348.47 312.595 348.369 313.002 348.369 313.432C348.369 313.881 348.47 314.275 348.672 314.613C348.874 314.952 349.154 315.245 349.512 315.492C349.876 315.753 350.309 315.974 350.811 316.156C351.318 316.339 351.878 316.492 352.49 316.615C352.979 316.706 353.385 316.804 353.711 316.908C354.036 317.012 354.3 317.123 354.502 317.24C354.691 317.37 354.824 317.507 354.902 317.65C354.987 317.794 355.029 317.956 355.029 318.139Z" fill="#009490"/>
<path d="M178.626 230H187.906V227.9H181.286V223.72H186.326V221.72H181.286V217.8H187.566V215.7H178.626V230ZM190.106 230H192.526V219.04L198.966 230H201.726V215.7H199.306V226.04L193.286 215.7H190.106V230ZM207.668 230H210.348V217.8H214.328V215.7H203.688V217.8H207.668V230ZM216.268 230H225.548V227.9H218.928V223.72H223.968V221.72H218.928V217.8H225.208V215.7H216.268V230ZM227.748 230H230.408V224.22H232.108L235.848 230H238.728L234.708 223.82C236.488 223.36 237.888 222.22 237.888 219.98V219.9C237.888 216.98 235.688 215.7 232.548 215.7H227.748V230ZM230.408 222.32V217.76H232.548C234.248 217.76 235.268 218.32 235.268 219.96V220.04C235.268 221.56 234.328 222.32 232.548 222.32H230.408ZM240.653 230H243.313V224.56H245.313C248.373 224.56 250.553 223.22 250.553 220.2V220.12C250.553 217.12 248.453 215.7 245.253 215.7H240.653V230ZM243.313 222.64V217.76H245.253C246.953 217.76 247.953 218.42 247.953 220.12V220.2C247.953 221.78 247.013 222.64 245.253 222.64H243.313ZM252.641 230H255.301V224.22H257.001L260.741 230H263.621L259.601 223.82C261.381 223.36 262.781 222.22 262.781 219.98V219.9C262.781 216.98 260.581 215.7 257.441 215.7H252.641V230ZM255.301 222.32V217.76H257.441C259.141 217.76 260.161 218.32 260.161 219.96V220.04C260.161 221.56 259.221 222.32 257.441 222.32H255.301ZM265.626 230H268.306V215.7H265.626V230ZM276.339 230.2C279.499 230.2 281.599 228.26 281.599 225.78C281.599 222.92 279.859 221.96 276.499 221.5C274.019 221.14 273.539 220.56 273.539 219.4C273.539 218.3 274.379 217.52 275.999 217.52C277.639 217.52 278.499 218.16 278.759 219.66H281.199C280.919 216.92 279.079 215.52 275.999 215.52C273.019 215.52 271.019 217.28 271.019 219.62C271.019 222.3 272.639 223.34 276.059 223.8C278.379 224.18 279.039 224.68 279.039 226C279.039 227.32 277.919 228.2 276.339 228.2C273.919 228.2 273.339 227 273.159 225.56H270.599C270.799 228.26 272.439 230.2 276.339 230.2ZM283.974 230H293.254V227.9H286.634V223.72H291.674V221.72H286.634V217.8H292.914V215.7H283.974V230Z" fill="#161F31"/>
<defs>
<clipPath id="clip0_317_13239">
<rect width="34.9706" height="41.7391" fill="white" transform="translate(38.1667 101.913)"/>
</clipPath>
<clipPath id="clip1_317_13239">
<rect width="41.7391" height="41.7391" fill="white" transform="translate(407.783 183.913)"/>
</clipPath>
</defs>
</svg>
